<mxfile host="app.diagrams.net" modified="2023-11-02T06:51:40.112Z" agent="Mozilla/5.0 (Macintosh; Intel Mac OS X 10_15_7) AppleWebKit/537.36 (KHTML, like Gecko) Chrome/118.0.0.0 Safari/537.36" etag="Ye5oieuGqRyKYxcdZYFR" version="22.0.8" type="github" pages="4">
  <diagram name="Cancellation Workflow for Travel Requests" id="Kl3eZkdiJHCmHtGax2_Q">
    <mxGraphModel dx="954" dy="610" grid="1" gridSize="10" guides="1" tooltips="1" connect="1" arrows="1" fold="1" page="1" pageScale="1" pageWidth="3300" pageHeight="4681" math="0" shadow="0">
      <root>
        <mxCell id="0" />
        <mxCell id="1" parent="0" />
        <mxCell id="pXnPlP7qhsRnaJxOZfcI-4" style="edgeStyle=orthogonalEdgeStyle;rounded=0;orthogonalLoop=1;jettySize=auto;html=1;" edge="1" parent="1" source="pXnPlP7qhsRnaJxOZfcI-1" target="pXnPlP7qhsRnaJxOZfcI-3">
          <mxGeometry relative="1" as="geometry" />
        </mxCell>
        <mxCell id="pXnPlP7qhsRnaJxOZfcI-1" value="Actor" style="shape=umlActor;verticalLabelPosition=bottom;verticalAlign=top;html=1;outlineConnect=0;" vertex="1" parent="1">
          <mxGeometry x="80" y="550" width="30" height="60" as="geometry" />
        </mxCell>
        <mxCell id="pXnPlP7qhsRnaJxOZfcI-2" value="&lt;font style=&quot;font-size: 24px;&quot;&gt;Cancellation workflow for Travel Requests&lt;/font&gt;" style="text;html=1;strokeColor=none;fillColor=none;align=center;verticalAlign=middle;whiteSpace=wrap;rounded=0;" vertex="1" parent="1">
          <mxGeometry x="40" y="90" width="470" height="30" as="geometry" />
        </mxCell>
        <mxCell id="pXnPlP7qhsRnaJxOZfcI-8" style="edgeStyle=orthogonalEdgeStyle;rounded=0;orthogonalLoop=1;jettySize=auto;html=1;entryX=0;entryY=0.5;entryDx=0;entryDy=0;" edge="1" parent="1" source="pXnPlP7qhsRnaJxOZfcI-3">
          <mxGeometry relative="1" as="geometry">
            <mxPoint x="490" y="580" as="targetPoint" />
          </mxGeometry>
        </mxCell>
        <mxCell id="pXnPlP7qhsRnaJxOZfcI-3" value="Travel Request through Travel view on Dashboard" style="rounded=1;whiteSpace=wrap;html=1;" vertex="1" parent="1">
          <mxGeometry x="240" y="550" width="120" height="60" as="geometry" />
        </mxCell>
        <mxCell id="pXnPlP7qhsRnaJxOZfcI-6" value="&lt;span style=&quot;font-size: 8px;&quot;&gt;Cancels&amp;nbsp;&lt;/span&gt;" style="text;html=1;strokeColor=none;fillColor=none;align=center;verticalAlign=middle;whiteSpace=wrap;rounded=0;" vertex="1" parent="1">
          <mxGeometry x="150" y="540" width="60" height="30" as="geometry" />
        </mxCell>
        <mxCell id="pXnPlP7qhsRnaJxOZfcI-17" value="" style="edgeStyle=orthogonalEdgeStyle;rounded=0;orthogonalLoop=1;jettySize=auto;html=1;" edge="1" parent="1" source="pXnPlP7qhsRnaJxOZfcI-14" target="pXnPlP7qhsRnaJxOZfcI-16">
          <mxGeometry relative="1" as="geometry" />
        </mxCell>
        <mxCell id="pXnPlP7qhsRnaJxOZfcI-14" value="Only TR&#39;s with Draft, Pending Approval, Approved, Pending Booking state will be visible on the dashboard to cancel" style="rounded=1;whiteSpace=wrap;html=1;" vertex="1" parent="1">
          <mxGeometry x="490" y="550" width="170" height="60" as="geometry" />
        </mxCell>
        <mxCell id="pXnPlP7qhsRnaJxOZfcI-20" style="edgeStyle=orthogonalEdgeStyle;rounded=0;orthogonalLoop=1;jettySize=auto;html=1;" edge="1" parent="1" source="pXnPlP7qhsRnaJxOZfcI-16" target="pXnPlP7qhsRnaJxOZfcI-19">
          <mxGeometry relative="1" as="geometry" />
        </mxCell>
        <mxCell id="pXnPlP7qhsRnaJxOZfcI-23" value="" style="edgeStyle=orthogonalEdgeStyle;rounded=0;orthogonalLoop=1;jettySize=auto;html=1;" edge="1" parent="1" source="pXnPlP7qhsRnaJxOZfcI-16" target="pXnPlP7qhsRnaJxOZfcI-22">
          <mxGeometry relative="1" as="geometry" />
        </mxCell>
        <mxCell id="pXnPlP7qhsRnaJxOZfcI-16" value="Cancel Button" style="rounded=1;whiteSpace=wrap;html=1;" vertex="1" parent="1">
          <mxGeometry x="760" y="550" width="120" height="60" as="geometry" />
        </mxCell>
        <mxCell id="pXnPlP7qhsRnaJxOZfcI-18" value="&lt;span style=&quot;font-size: 8px;&quot;&gt;User Clicks&amp;nbsp;&lt;/span&gt;" style="text;html=1;strokeColor=none;fillColor=none;align=center;verticalAlign=middle;whiteSpace=wrap;rounded=0;" vertex="1" parent="1">
          <mxGeometry x="680" y="550" width="60" height="30" as="geometry" />
        </mxCell>
        <mxCell id="pXnPlP7qhsRnaJxOZfcI-26" value="" style="edgeStyle=orthogonalEdgeStyle;rounded=0;orthogonalLoop=1;jettySize=auto;html=1;" edge="1" parent="1" source="pXnPlP7qhsRnaJxOZfcI-19" target="pXnPlP7qhsRnaJxOZfcI-25">
          <mxGeometry relative="1" as="geometry" />
        </mxCell>
        <mxCell id="pXnPlP7qhsRnaJxOZfcI-19" value="Travel Microservice" style="shape=cube;whiteSpace=wrap;html=1;boundedLbl=1;backgroundOutline=1;darkOpacity=0.05;darkOpacity2=0.1;" vertex="1" parent="1">
          <mxGeometry x="1000" y="540" width="120" height="80" as="geometry" />
        </mxCell>
        <mxCell id="pXnPlP7qhsRnaJxOZfcI-21" value="&lt;span style=&quot;font-size: 8px;&quot;&gt;Control Passed To&lt;/span&gt;" style="text;html=1;strokeColor=none;fillColor=none;align=center;verticalAlign=middle;whiteSpace=wrap;rounded=0;" vertex="1" parent="1">
          <mxGeometry x="900" y="540" width="60" height="30" as="geometry" />
        </mxCell>
        <mxCell id="pXnPlP7qhsRnaJxOZfcI-22" value="Cash Advance Microservice" style="shape=cube;whiteSpace=wrap;html=1;boundedLbl=1;backgroundOutline=1;darkOpacity=0.05;darkOpacity2=0.1;" vertex="1" parent="1">
          <mxGeometry x="760" y="710" width="120" height="80" as="geometry" />
        </mxCell>
        <mxCell id="pXnPlP7qhsRnaJxOZfcI-24" value="&lt;span style=&quot;font-size: 8px;&quot;&gt;Control Passed To&lt;/span&gt;" style="text;html=1;strokeColor=none;fillColor=none;align=center;verticalAlign=middle;whiteSpace=wrap;rounded=0;" vertex="1" parent="1">
          <mxGeometry x="760" y="640" width="60" height="30" as="geometry" />
        </mxCell>
        <mxCell id="pXnPlP7qhsRnaJxOZfcI-29" value="" style="edgeStyle=orthogonalEdgeStyle;rounded=0;orthogonalLoop=1;jettySize=auto;html=1;entryX=0.5;entryY=1;entryDx=0;entryDy=0;entryPerimeter=0;" edge="1" parent="1" source="pXnPlP7qhsRnaJxOZfcI-25" target="pXnPlP7qhsRnaJxOZfcI-30">
          <mxGeometry relative="1" as="geometry">
            <mxPoint x="1440" y="580" as="targetPoint" />
          </mxGeometry>
        </mxCell>
        <mxCell id="pXnPlP7qhsRnaJxOZfcI-25" value="Travel Request Container" style="shape=cylinder3;whiteSpace=wrap;html=1;boundedLbl=1;backgroundOutline=1;size=15;" vertex="1" parent="1">
          <mxGeometry x="1230" y="525" width="110" height="110" as="geometry" />
        </mxCell>
        <mxCell id="pXnPlP7qhsRnaJxOZfcI-27" value="&lt;span style=&quot;font-size: 8px;&quot;&gt;Search&amp;nbsp;&lt;/span&gt;" style="text;html=1;strokeColor=none;fillColor=none;align=center;verticalAlign=middle;whiteSpace=wrap;rounded=0;" vertex="1" parent="1">
          <mxGeometry x="1150" y="540" width="60" height="30" as="geometry" />
        </mxCell>
        <mxCell id="pXnPlP7qhsRnaJxOZfcI-34" style="edgeStyle=orthogonalEdgeStyle;rounded=0;orthogonalLoop=1;jettySize=auto;html=1;entryX=0.5;entryY=0;entryDx=0;entryDy=0;" edge="1" parent="1" source="pXnPlP7qhsRnaJxOZfcI-30" target="pXnPlP7qhsRnaJxOZfcI-14">
          <mxGeometry relative="1" as="geometry" />
        </mxCell>
        <mxCell id="pXnPlP7qhsRnaJxOZfcI-30" value="Update status to Cancelled for both TR and CA respectively" style="shape=cylinder3;whiteSpace=wrap;html=1;boundedLbl=1;backgroundOutline=1;size=15;" vertex="1" parent="1">
          <mxGeometry x="1450" y="310" width="110" height="110" as="geometry" />
        </mxCell>
        <mxCell id="pXnPlP7qhsRnaJxOZfcI-35" value="&lt;span style=&quot;font-size: 8px;&quot;&gt;Pop up Message back to Dashboard Container saying travel request has been cancelled&amp;nbsp;&lt;/span&gt;" style="text;html=1;strokeColor=none;fillColor=none;align=center;verticalAlign=middle;whiteSpace=wrap;rounded=0;" vertex="1" parent="1">
          <mxGeometry x="870" y="330" width="190" height="30" as="geometry" />
        </mxCell>
        <mxCell id="pXnPlP7qhsRnaJxOZfcI-36" value="Cash Advance Container" style="shape=cylinder3;whiteSpace=wrap;html=1;boundedLbl=1;backgroundOutline=1;size=15;" vertex="1" parent="1">
          <mxGeometry x="1230" y="695" width="110" height="110" as="geometry" />
        </mxCell>
        <mxCell id="pXnPlP7qhsRnaJxOZfcI-37" style="edgeStyle=orthogonalEdgeStyle;rounded=0;orthogonalLoop=1;jettySize=auto;html=1;entryX=0;entryY=0.5;entryDx=0;entryDy=0;entryPerimeter=0;" edge="1" parent="1" source="pXnPlP7qhsRnaJxOZfcI-22" target="pXnPlP7qhsRnaJxOZfcI-36">
          <mxGeometry relative="1" as="geometry" />
        </mxCell>
        <mxCell id="pXnPlP7qhsRnaJxOZfcI-38" style="edgeStyle=orthogonalEdgeStyle;rounded=0;orthogonalLoop=1;jettySize=auto;html=1;entryX=0.5;entryY=1;entryDx=0;entryDy=0;entryPerimeter=0;" edge="1" parent="1" source="pXnPlP7qhsRnaJxOZfcI-36" target="pXnPlP7qhsRnaJxOZfcI-30">
          <mxGeometry relative="1" as="geometry" />
        </mxCell>
      </root>
    </mxGraphModel>
  </diagram>
  <diagram id="c9e3GhNwOa_Yj7-O-_f0" name="Cancellation Workflow for Booked Travel Requests / Trips">
    <mxGraphModel dx="954" dy="5291" grid="1" gridSize="10" guides="1" tooltips="1" connect="1" arrows="1" fold="1" page="1" pageScale="1" pageWidth="3300" pageHeight="4681" math="0" shadow="0">
      <root>
        <mxCell id="0" />
        <mxCell id="1" parent="0" />
        <mxCell id="Zx8tGE_OwxVTlL_qJqCF-1" value="&lt;font style=&quot;font-size: 24px;&quot;&gt;Cancellation workflow for Trips&lt;/font&gt;" style="text;html=1;strokeColor=none;fillColor=none;align=center;verticalAlign=middle;whiteSpace=wrap;rounded=0;" vertex="1" parent="1">
          <mxGeometry x="40" y="90" width="470" height="30" as="geometry" />
        </mxCell>
        <mxCell id="2YVcXeB4K-y9u2wurkfq-1" style="edgeStyle=orthogonalEdgeStyle;rounded=0;orthogonalLoop=1;jettySize=auto;html=1;" edge="1" parent="1" source="2YVcXeB4K-y9u2wurkfq-2" target="2YVcXeB4K-y9u2wurkfq-4">
          <mxGeometry relative="1" as="geometry" />
        </mxCell>
        <mxCell id="2YVcXeB4K-y9u2wurkfq-2" value="Actor" style="shape=umlActor;verticalLabelPosition=bottom;verticalAlign=top;html=1;outlineConnect=0;" vertex="1" parent="1">
          <mxGeometry x="80" y="550" width="30" height="60" as="geometry" />
        </mxCell>
        <mxCell id="2YVcXeB4K-y9u2wurkfq-4" value="Upcoming or InTransit Trip throughTrip Overview view on Dashboard" style="rounded=1;whiteSpace=wrap;html=1;" vertex="1" parent="1">
          <mxGeometry x="240" y="550" width="120" height="60" as="geometry" />
        </mxCell>
        <mxCell id="2YVcXeB4K-y9u2wurkfq-5" value="&lt;span style=&quot;font-size: 8px;&quot;&gt;Cancels&amp;nbsp;&lt;/span&gt;" style="text;html=1;strokeColor=none;fillColor=none;align=center;verticalAlign=middle;whiteSpace=wrap;rounded=0;" vertex="1" parent="1">
          <mxGeometry x="150" y="540" width="60" height="30" as="geometry" />
        </mxCell>
        <mxCell id="g5VyHxZz1z-EIeB7FHDg-1" value="" style="edgeStyle=orthogonalEdgeStyle;rounded=0;orthogonalLoop=1;jettySize=auto;html=1;" edge="1" parent="1" target="g5VyHxZz1z-EIeB7FHDg-2">
          <mxGeometry relative="1" as="geometry">
            <mxPoint x="330" y="580" as="sourcePoint" />
          </mxGeometry>
        </mxCell>
        <mxCell id="g5VyHxZz1z-EIeB7FHDg-2" value="Cancel Button" style="rounded=1;whiteSpace=wrap;html=1;" vertex="1" parent="1">
          <mxGeometry x="510" y="550" width="120" height="60" as="geometry" />
        </mxCell>
        <mxCell id="g5VyHxZz1z-EIeB7FHDg-3" value="&lt;span style=&quot;font-size: 8px;&quot;&gt;User Clicks&amp;nbsp;&lt;/span&gt;" style="text;html=1;strokeColor=none;fillColor=none;align=center;verticalAlign=middle;whiteSpace=wrap;rounded=0;" vertex="1" parent="1">
          <mxGeometry x="410" y="550" width="60" height="30" as="geometry" />
        </mxCell>
        <mxCell id="8__c1F-dY3vd3VM-BMDQ-1" style="edgeStyle=orthogonalEdgeStyle;rounded=0;orthogonalLoop=1;jettySize=auto;html=1;" edge="1" parent="1" target="8__c1F-dY3vd3VM-BMDQ-2">
          <mxGeometry relative="1" as="geometry">
            <mxPoint x="630" y="580" as="sourcePoint" />
          </mxGeometry>
        </mxCell>
        <mxCell id="8__c1F-dY3vd3VM-BMDQ-2" value="Trip Microservice" style="shape=cube;whiteSpace=wrap;html=1;boundedLbl=1;backgroundOutline=1;darkOpacity=0.05;darkOpacity2=0.1;" vertex="1" parent="1">
          <mxGeometry x="750" y="540" width="120" height="80" as="geometry" />
        </mxCell>
        <mxCell id="8__c1F-dY3vd3VM-BMDQ-3" value="&lt;span style=&quot;font-size: 8px;&quot;&gt;Control Passed To&lt;/span&gt;" style="text;html=1;strokeColor=none;fillColor=none;align=center;verticalAlign=middle;whiteSpace=wrap;rounded=0;" vertex="1" parent="1">
          <mxGeometry x="650" y="540" width="60" height="30" as="geometry" />
        </mxCell>
        <mxCell id="LyOlhlhnUVZgFgKbEfRc-1" value="" style="edgeStyle=orthogonalEdgeStyle;rounded=0;orthogonalLoop=1;jettySize=auto;html=1;" edge="1" parent="1" target="LyOlhlhnUVZgFgKbEfRc-2">
          <mxGeometry relative="1" as="geometry">
            <mxPoint x="870" y="580" as="sourcePoint" />
          </mxGeometry>
        </mxCell>
        <mxCell id="LyOlhlhnUVZgFgKbEfRc-5" value="" style="edgeStyle=orthogonalEdgeStyle;rounded=0;orthogonalLoop=1;jettySize=auto;html=1;" edge="1" parent="1" source="LyOlhlhnUVZgFgKbEfRc-2" target="LyOlhlhnUVZgFgKbEfRc-4">
          <mxGeometry relative="1" as="geometry" />
        </mxCell>
        <mxCell id="LyOlhlhnUVZgFgKbEfRc-2" value="Trip Container" style="shape=cylinder3;whiteSpace=wrap;html=1;boundedLbl=1;backgroundOutline=1;size=15;" vertex="1" parent="1">
          <mxGeometry x="980" y="525" width="110" height="110" as="geometry" />
        </mxCell>
        <mxCell id="LyOlhlhnUVZgFgKbEfRc-3" value="&lt;span style=&quot;font-size: 8px;&quot;&gt;Search&amp;nbsp;&lt;/span&gt;" style="text;html=1;strokeColor=none;fillColor=none;align=center;verticalAlign=middle;whiteSpace=wrap;rounded=0;" vertex="1" parent="1">
          <mxGeometry x="900" y="540" width="60" height="30" as="geometry" />
        </mxCell>
        <mxCell id="LyOlhlhnUVZgFgKbEfRc-8" value="" style="edgeStyle=orthogonalEdgeStyle;rounded=0;orthogonalLoop=1;jettySize=auto;html=1;" edge="1" parent="1" source="LyOlhlhnUVZgFgKbEfRc-4" target="LyOlhlhnUVZgFgKbEfRc-7">
          <mxGeometry relative="1" as="geometry" />
        </mxCell>
        <mxCell id="LyOlhlhnUVZgFgKbEfRc-4" value="Paid and Cancelled." style="rounded=1;whiteSpace=wrap;html=1;" vertex="1" parent="1">
          <mxGeometry x="1200" y="550" width="120" height="60" as="geometry" />
        </mxCell>
        <mxCell id="LyOlhlhnUVZgFgKbEfRc-6" value="&lt;span style=&quot;font-size: 8px;&quot;&gt;Change status to&amp;nbsp;&lt;/span&gt;" style="text;html=1;strokeColor=none;fillColor=none;align=center;verticalAlign=middle;whiteSpace=wrap;rounded=0;" vertex="1" parent="1">
          <mxGeometry x="1110" y="540" width="60" height="30" as="geometry" />
        </mxCell>
        <mxCell id="LyOlhlhnUVZgFgKbEfRc-10" value="" style="edgeStyle=orthogonalEdgeStyle;rounded=0;orthogonalLoop=1;jettySize=auto;html=1;" edge="1" parent="1" source="LyOlhlhnUVZgFgKbEfRc-7" target="LyOlhlhnUVZgFgKbEfRc-9">
          <mxGeometry relative="1" as="geometry" />
        </mxCell>
        <mxCell id="LyOlhlhnUVZgFgKbEfRc-30" value="" style="edgeStyle=orthogonalEdgeStyle;rounded=0;orthogonalLoop=1;jettySize=auto;html=1;" edge="1" parent="1" source="LyOlhlhnUVZgFgKbEfRc-7" target="LyOlhlhnUVZgFgKbEfRc-29">
          <mxGeometry relative="1" as="geometry" />
        </mxCell>
        <mxCell id="LyOlhlhnUVZgFgKbEfRc-7" value="Check if Cash Advance is Available?" style="rhombus;whiteSpace=wrap;html=1;" vertex="1" parent="1">
          <mxGeometry x="1400" y="510" width="140" height="140" as="geometry" />
        </mxCell>
        <mxCell id="LyOlhlhnUVZgFgKbEfRc-14" style="edgeStyle=orthogonalEdgeStyle;rounded=0;orthogonalLoop=1;jettySize=auto;html=1;" edge="1" parent="1" source="LyOlhlhnUVZgFgKbEfRc-9" target="LyOlhlhnUVZgFgKbEfRc-13">
          <mxGeometry relative="1" as="geometry" />
        </mxCell>
        <mxCell id="LyOlhlhnUVZgFgKbEfRc-9" value="Travel Microservice" style="shape=cube;whiteSpace=wrap;html=1;boundedLbl=1;backgroundOutline=1;darkOpacity=0.05;darkOpacity2=0.1;" vertex="1" parent="1">
          <mxGeometry x="1410" y="350" width="120" height="80" as="geometry" />
        </mxCell>
        <mxCell id="LyOlhlhnUVZgFgKbEfRc-11" value="&lt;span style=&quot;font-size: 8px;&quot;&gt;Control Passed To&lt;/span&gt;" style="text;html=1;strokeColor=none;fillColor=none;align=center;verticalAlign=middle;whiteSpace=wrap;rounded=0;" vertex="1" parent="1">
          <mxGeometry x="1400" y="460" width="60" height="30" as="geometry" />
        </mxCell>
        <mxCell id="LyOlhlhnUVZgFgKbEfRc-12" value="&lt;span style=&quot;font-size: 8px;&quot;&gt;No&lt;/span&gt;" style="text;html=1;strokeColor=none;fillColor=none;align=center;verticalAlign=middle;whiteSpace=wrap;rounded=0;" vertex="1" parent="1">
          <mxGeometry x="1480" y="460" width="60" height="30" as="geometry" />
        </mxCell>
        <mxCell id="LyOlhlhnUVZgFgKbEfRc-17" value="" style="edgeStyle=orthogonalEdgeStyle;rounded=0;orthogonalLoop=1;jettySize=auto;html=1;" edge="1" parent="1" source="LyOlhlhnUVZgFgKbEfRc-13" target="LyOlhlhnUVZgFgKbEfRc-16">
          <mxGeometry relative="1" as="geometry" />
        </mxCell>
        <mxCell id="LyOlhlhnUVZgFgKbEfRc-13" value="Travel Request Container" style="shape=cylinder3;whiteSpace=wrap;html=1;boundedLbl=1;backgroundOutline=1;size=15;" vertex="1" parent="1">
          <mxGeometry x="1415" y="140" width="110" height="110" as="geometry" />
        </mxCell>
        <mxCell id="LyOlhlhnUVZgFgKbEfRc-15" value="&lt;span style=&quot;font-size: 8px;&quot;&gt;Search&lt;/span&gt;" style="text;html=1;strokeColor=none;fillColor=none;align=center;verticalAlign=middle;whiteSpace=wrap;rounded=0;" vertex="1" parent="1">
          <mxGeometry x="1400" y="290" width="60" height="30" as="geometry" />
        </mxCell>
        <mxCell id="IgH0ivac1AJPUavBNKSS-1" style="edgeStyle=orthogonalEdgeStyle;rounded=0;orthogonalLoop=1;jettySize=auto;html=1;entryX=0.5;entryY=0;entryDx=0;entryDy=0;" edge="1" parent="1" source="LyOlhlhnUVZgFgKbEfRc-16" target="2YVcXeB4K-y9u2wurkfq-4">
          <mxGeometry relative="1" as="geometry">
            <Array as="points">
              <mxPoint x="1470" y="210" />
              <mxPoint x="300" y="210" />
            </Array>
          </mxGeometry>
        </mxCell>
        <mxCell id="LyOlhlhnUVZgFgKbEfRc-16" value="Paid and Cancelled." style="rounded=1;whiteSpace=wrap;html=1;" vertex="1" parent="1">
          <mxGeometry x="1410" y="-10" width="120" height="60" as="geometry" />
        </mxCell>
        <mxCell id="LyOlhlhnUVZgFgKbEfRc-18" value="&lt;span style=&quot;font-size: 8px;&quot;&gt;Change status to&amp;nbsp;&lt;/span&gt;" style="text;html=1;strokeColor=none;fillColor=none;align=center;verticalAlign=middle;whiteSpace=wrap;rounded=0;" vertex="1" parent="1">
          <mxGeometry x="1390" y="70" width="60" height="30" as="geometry" />
        </mxCell>
        <mxCell id="LyOlhlhnUVZgFgKbEfRc-24" value="" style="edgeStyle=orthogonalEdgeStyle;rounded=0;orthogonalLoop=1;jettySize=auto;html=1;" edge="1" parent="1" source="LyOlhlhnUVZgFgKbEfRc-19" target="LyOlhlhnUVZgFgKbEfRc-23">
          <mxGeometry relative="1" as="geometry" />
        </mxCell>
        <mxCell id="LyOlhlhnUVZgFgKbEfRc-19" value="Travel Microservice" style="shape=cube;whiteSpace=wrap;html=1;boundedLbl=1;backgroundOutline=1;darkOpacity=0.05;darkOpacity2=0.1;" vertex="1" parent="1">
          <mxGeometry x="1690" y="540" width="120" height="80" as="geometry" />
        </mxCell>
        <mxCell id="LyOlhlhnUVZgFgKbEfRc-20" style="edgeStyle=orthogonalEdgeStyle;rounded=0;orthogonalLoop=1;jettySize=auto;html=1;entryX=-0.017;entryY=0.463;entryDx=0;entryDy=0;entryPerimeter=0;" edge="1" parent="1" source="LyOlhlhnUVZgFgKbEfRc-7" target="LyOlhlhnUVZgFgKbEfRc-19">
          <mxGeometry relative="1" as="geometry" />
        </mxCell>
        <mxCell id="LyOlhlhnUVZgFgKbEfRc-21" value="&lt;span style=&quot;font-size: 8px;&quot;&gt;Yes&lt;/span&gt;" style="text;html=1;strokeColor=none;fillColor=none;align=center;verticalAlign=middle;whiteSpace=wrap;rounded=0;" vertex="1" parent="1">
          <mxGeometry x="1580" y="590" width="60" height="30" as="geometry" />
        </mxCell>
        <mxCell id="LyOlhlhnUVZgFgKbEfRc-22" value="&lt;span style=&quot;font-size: 8px;&quot;&gt;Control Passed To&lt;/span&gt;" style="text;html=1;strokeColor=none;fillColor=none;align=center;verticalAlign=middle;whiteSpace=wrap;rounded=0;" vertex="1" parent="1">
          <mxGeometry x="1570" y="540" width="60" height="30" as="geometry" />
        </mxCell>
        <mxCell id="LyOlhlhnUVZgFgKbEfRc-27" value="" style="edgeStyle=orthogonalEdgeStyle;rounded=0;orthogonalLoop=1;jettySize=auto;html=1;" edge="1" parent="1" source="LyOlhlhnUVZgFgKbEfRc-23" target="LyOlhlhnUVZgFgKbEfRc-26">
          <mxGeometry relative="1" as="geometry" />
        </mxCell>
        <mxCell id="LyOlhlhnUVZgFgKbEfRc-23" value="Travel Request Container" style="shape=cylinder3;whiteSpace=wrap;html=1;boundedLbl=1;backgroundOutline=1;size=15;" vertex="1" parent="1">
          <mxGeometry x="1900" y="525" width="110" height="110" as="geometry" />
        </mxCell>
        <mxCell id="LyOlhlhnUVZgFgKbEfRc-25" value="&lt;span style=&quot;font-size: 8px;&quot;&gt;Search&lt;/span&gt;" style="text;html=1;strokeColor=none;fillColor=none;align=center;verticalAlign=middle;whiteSpace=wrap;rounded=0;" vertex="1" parent="1">
          <mxGeometry x="1820" y="540" width="60" height="30" as="geometry" />
        </mxCell>
        <mxCell id="yi2mZVbvIpwaOpo2sRyY-2" style="edgeStyle=orthogonalEdgeStyle;rounded=0;orthogonalLoop=1;jettySize=auto;html=1;entryX=0.5;entryY=1;entryDx=0;entryDy=0;exitX=0.5;exitY=1;exitDx=0;exitDy=0;" edge="1" parent="1" source="LyOlhlhnUVZgFgKbEfRc-39" target="2YVcXeB4K-y9u2wurkfq-4">
          <mxGeometry relative="1" as="geometry">
            <mxPoint x="2140" y="1070" as="sourcePoint" />
            <mxPoint x="300" y="1100" as="targetPoint" />
            <Array as="points">
              <mxPoint x="2150" y="1070" />
              <mxPoint x="1265" y="1070" />
              <mxPoint x="1265" y="1580" />
              <mxPoint x="300" y="1580" />
            </Array>
          </mxGeometry>
        </mxCell>
        <mxCell id="yi2mZVbvIpwaOpo2sRyY-3" style="edgeStyle=orthogonalEdgeStyle;rounded=0;orthogonalLoop=1;jettySize=auto;html=1;" edge="1" parent="1" source="LyOlhlhnUVZgFgKbEfRc-26">
          <mxGeometry relative="1" as="geometry">
            <mxPoint x="2320" y="1080" as="targetPoint" />
          </mxGeometry>
        </mxCell>
        <mxCell id="LyOlhlhnUVZgFgKbEfRc-26" value="Paid and Cancelled." style="rounded=1;whiteSpace=wrap;html=1;" vertex="1" parent="1">
          <mxGeometry x="2110" y="550" width="120" height="60" as="geometry" />
        </mxCell>
        <mxCell id="LyOlhlhnUVZgFgKbEfRc-28" value="&lt;span style=&quot;font-size: 8px;&quot;&gt;Change status to&amp;nbsp;&lt;/span&gt;" style="text;html=1;strokeColor=none;fillColor=none;align=center;verticalAlign=middle;whiteSpace=wrap;rounded=0;" vertex="1" parent="1">
          <mxGeometry x="2030" y="540" width="60" height="30" as="geometry" />
        </mxCell>
        <mxCell id="LyOlhlhnUVZgFgKbEfRc-34" value="" style="edgeStyle=orthogonalEdgeStyle;rounded=0;orthogonalLoop=1;jettySize=auto;html=1;" edge="1" parent="1" source="LyOlhlhnUVZgFgKbEfRc-29" target="LyOlhlhnUVZgFgKbEfRc-33">
          <mxGeometry relative="1" as="geometry" />
        </mxCell>
        <mxCell id="LyOlhlhnUVZgFgKbEfRc-29" value="Cash Advance Microservice" style="shape=cube;whiteSpace=wrap;html=1;boundedLbl=1;backgroundOutline=1;darkOpacity=0.05;darkOpacity2=0.1;" vertex="1" parent="1">
          <mxGeometry x="1410" y="730" width="120" height="80" as="geometry" />
        </mxCell>
        <mxCell id="LyOlhlhnUVZgFgKbEfRc-31" value="&lt;span style=&quot;font-size: 8px;&quot;&gt;Control Passed To&lt;/span&gt;" style="text;html=1;strokeColor=none;fillColor=none;align=center;verticalAlign=middle;whiteSpace=wrap;rounded=0;" vertex="1" parent="1">
          <mxGeometry x="1390" y="660" width="60" height="30" as="geometry" />
        </mxCell>
        <mxCell id="LyOlhlhnUVZgFgKbEfRc-32" value="&lt;span style=&quot;font-size: 8px;&quot;&gt;Yes&lt;/span&gt;" style="text;html=1;strokeColor=none;fillColor=none;align=center;verticalAlign=middle;whiteSpace=wrap;rounded=0;" vertex="1" parent="1">
          <mxGeometry x="1465" y="670" width="60" height="30" as="geometry" />
        </mxCell>
        <mxCell id="LyOlhlhnUVZgFgKbEfRc-37" value="" style="edgeStyle=orthogonalEdgeStyle;rounded=0;orthogonalLoop=1;jettySize=auto;html=1;" edge="1" parent="1" source="LyOlhlhnUVZgFgKbEfRc-33" target="LyOlhlhnUVZgFgKbEfRc-36">
          <mxGeometry relative="1" as="geometry" />
        </mxCell>
        <mxCell id="LyOlhlhnUVZgFgKbEfRc-33" value="Cash Advance Container" style="shape=cylinder3;whiteSpace=wrap;html=1;boundedLbl=1;backgroundOutline=1;size=15;" vertex="1" parent="1">
          <mxGeometry x="1630" y="715" width="110" height="110" as="geometry" />
        </mxCell>
        <mxCell id="LyOlhlhnUVZgFgKbEfRc-35" value="&lt;span style=&quot;font-size: 8px;&quot;&gt;Search&lt;/span&gt;" style="text;html=1;strokeColor=none;fillColor=none;align=center;verticalAlign=middle;whiteSpace=wrap;rounded=0;" vertex="1" parent="1">
          <mxGeometry x="1550" y="730" width="60" height="30" as="geometry" />
        </mxCell>
        <mxCell id="LyOlhlhnUVZgFgKbEfRc-43" value="" style="edgeStyle=orthogonalEdgeStyle;rounded=0;orthogonalLoop=1;jettySize=auto;html=1;" edge="1" parent="1" source="LyOlhlhnUVZgFgKbEfRc-36" target="LyOlhlhnUVZgFgKbEfRc-42">
          <mxGeometry relative="1" as="geometry" />
        </mxCell>
        <mxCell id="LyOlhlhnUVZgFgKbEfRc-36" value="Check Cash Advance Status?" style="rhombus;whiteSpace=wrap;html=1;" vertex="1" parent="1">
          <mxGeometry x="1850" y="700" width="140" height="140" as="geometry" />
        </mxCell>
        <mxCell id="LyOlhlhnUVZgFgKbEfRc-38" value="" style="edgeStyle=orthogonalEdgeStyle;rounded=0;orthogonalLoop=1;jettySize=auto;html=1;" edge="1" parent="1" target="LyOlhlhnUVZgFgKbEfRc-39">
          <mxGeometry relative="1" as="geometry">
            <mxPoint x="1990" y="770" as="sourcePoint" />
          </mxGeometry>
        </mxCell>
        <mxCell id="LyOlhlhnUVZgFgKbEfRc-39" value="Paid and Cancelled." style="rounded=1;whiteSpace=wrap;html=1;" vertex="1" parent="1">
          <mxGeometry x="2090" y="740" width="120" height="60" as="geometry" />
        </mxCell>
        <mxCell id="LyOlhlhnUVZgFgKbEfRc-40" value="&lt;span style=&quot;font-size: 8px;&quot;&gt;Change status to&amp;nbsp;&lt;/span&gt;" style="text;html=1;strokeColor=none;fillColor=none;align=center;verticalAlign=middle;whiteSpace=wrap;rounded=0;" vertex="1" parent="1">
          <mxGeometry x="2010" y="730" width="60" height="30" as="geometry" />
        </mxCell>
        <mxCell id="LyOlhlhnUVZgFgKbEfRc-41" value="&lt;span style=&quot;font-size: 8px;&quot;&gt;Paid&lt;/span&gt;" style="text;html=1;strokeColor=none;fillColor=none;align=center;verticalAlign=middle;whiteSpace=wrap;rounded=0;" vertex="1" parent="1">
          <mxGeometry x="2010" y="780" width="60" height="30" as="geometry" />
        </mxCell>
        <mxCell id="LyOlhlhnUVZgFgKbEfRc-42" value="Cancelled" style="rounded=1;whiteSpace=wrap;html=1;" vertex="1" parent="1">
          <mxGeometry x="1860" y="920" width="120" height="60" as="geometry" />
        </mxCell>
        <mxCell id="LyOlhlhnUVZgFgKbEfRc-44" value="&lt;span style=&quot;font-size: 8px;&quot;&gt;Anything Else&lt;/span&gt;" style="text;html=1;strokeColor=none;fillColor=none;align=center;verticalAlign=middle;whiteSpace=wrap;rounded=0;" vertex="1" parent="1">
          <mxGeometry x="1850" y="860" width="60" height="30" as="geometry" />
        </mxCell>
        <mxCell id="yi2mZVbvIpwaOpo2sRyY-1" value="&lt;span style=&quot;font-size: 8px;&quot;&gt;Pop up Message back to Dashboard Container saying ttrip has been cancelled&amp;nbsp;&lt;/span&gt;" style="text;html=1;strokeColor=none;fillColor=none;align=center;verticalAlign=middle;whiteSpace=wrap;rounded=0;" vertex="1" parent="1">
          <mxGeometry x="760" y="160" width="190" height="30" as="geometry" />
        </mxCell>
        <mxCell id="yi2mZVbvIpwaOpo2sRyY-4" value="" style="endArrow=classic;html=1;rounded=0;" edge="1" parent="1">
          <mxGeometry width="50" height="50" relative="1" as="geometry">
            <mxPoint x="2320" y="1070" as="sourcePoint" />
            <mxPoint x="2150" y="1070" as="targetPoint" />
          </mxGeometry>
        </mxCell>
        <mxCell id="yi2mZVbvIpwaOpo2sRyY-5" value="&lt;span style=&quot;font-size: 8px;&quot;&gt;Pop up Message back to Dashboard Container saying ttrip has been cancelled&amp;nbsp;&lt;/span&gt;" style="text;html=1;strokeColor=none;fillColor=none;align=center;verticalAlign=middle;whiteSpace=wrap;rounded=0;" vertex="1" parent="1">
          <mxGeometry x="630" y="1520" width="190" height="30" as="geometry" />
        </mxCell>
      </root>
    </mxGraphModel>
  </diagram>
  <diagram id="D22JLe05OITK8_iksENa" name="Cancellation workflow for cash advance">
    <mxGraphModel dx="954" dy="610" grid="1" gridSize="10" guides="1" tooltips="1" connect="1" arrows="1" fold="1" page="1" pageScale="1" pageWidth="3300" pageHeight="4681" math="0" shadow="0">
      <root>
        <mxCell id="0" />
        <mxCell id="1" parent="0" />
        <mxCell id="kbBajID5bTtprM4yVmle-1" value="&lt;font style=&quot;font-size: 24px;&quot;&gt;Cancellation workflow for Cash Advance&lt;/font&gt;" style="text;html=1;strokeColor=none;fillColor=none;align=center;verticalAlign=middle;whiteSpace=wrap;rounded=0;" vertex="1" parent="1">
          <mxGeometry x="40" y="90" width="470" height="30" as="geometry" />
        </mxCell>
        <mxCell id="FpujOqRwtCuQE8KV9MhK-1" style="edgeStyle=orthogonalEdgeStyle;rounded=0;orthogonalLoop=1;jettySize=auto;html=1;" edge="1" parent="1" source="FpujOqRwtCuQE8KV9MhK-2">
          <mxGeometry relative="1" as="geometry">
            <mxPoint x="240" y="580" as="targetPoint" />
          </mxGeometry>
        </mxCell>
        <mxCell id="FpujOqRwtCuQE8KV9MhK-2" value="Actor" style="shape=umlActor;verticalLabelPosition=bottom;verticalAlign=top;html=1;outlineConnect=0;" vertex="1" parent="1">
          <mxGeometry x="80" y="550" width="30" height="60" as="geometry" />
        </mxCell>
        <mxCell id="FpujOqRwtCuQE8KV9MhK-3" value="&lt;span style=&quot;font-size: 8px;&quot;&gt;Cancels&amp;nbsp;&lt;/span&gt;" style="text;html=1;strokeColor=none;fillColor=none;align=center;verticalAlign=middle;whiteSpace=wrap;rounded=0;" vertex="1" parent="1">
          <mxGeometry x="150" y="540" width="60" height="30" as="geometry" />
        </mxCell>
        <mxCell id="II3-7XxeYeSao9Q-zOTx-3" style="edgeStyle=orthogonalEdgeStyle;rounded=0;orthogonalLoop=1;jettySize=auto;html=1;" edge="1" parent="1" source="IXdlzOIYDFu96ksL9-iT-1" target="II3-7XxeYeSao9Q-zOTx-1">
          <mxGeometry relative="1" as="geometry" />
        </mxCell>
        <mxCell id="IXdlzOIYDFu96ksL9-iT-1" value="Cash Advance through Travel Dashboard view" style="rounded=1;whiteSpace=wrap;html=1;" vertex="1" parent="1">
          <mxGeometry x="240" y="550" width="120" height="60" as="geometry" />
        </mxCell>
        <mxCell id="JVLMp-UYZ-pjIWobG83I-1" style="edgeStyle=orthogonalEdgeStyle;rounded=0;orthogonalLoop=1;jettySize=auto;html=1;" edge="1" parent="1" source="JVLMp-UYZ-pjIWobG83I-2">
          <mxGeometry relative="1" as="geometry">
            <mxPoint x="240" y="580" as="targetPoint" />
          </mxGeometry>
        </mxCell>
        <mxCell id="JVLMp-UYZ-pjIWobG83I-2" value="Actor" style="shape=umlActor;verticalLabelPosition=bottom;verticalAlign=top;html=1;outlineConnect=0;" vertex="1" parent="1">
          <mxGeometry x="80" y="550" width="30" height="60" as="geometry" />
        </mxCell>
        <mxCell id="JVLMp-UYZ-pjIWobG83I-3" value="&lt;span style=&quot;font-size: 8px;&quot;&gt;Cancels&amp;nbsp;&lt;/span&gt;" style="text;html=1;strokeColor=none;fillColor=none;align=center;verticalAlign=middle;whiteSpace=wrap;rounded=0;" vertex="1" parent="1">
          <mxGeometry x="150" y="540" width="60" height="30" as="geometry" />
        </mxCell>
        <mxCell id="II3-7XxeYeSao9Q-zOTx-1" value="Cash advances with Draft, Pending Approval, Approved, awaiting pending settlement, pending settlement state." style="rounded=1;whiteSpace=wrap;html=1;" vertex="1" parent="1">
          <mxGeometry x="490" y="500" width="170" height="160" as="geometry" />
        </mxCell>
        <mxCell id="PweWt-D04_wV0qnd1JjN-1" value="" style="edgeStyle=orthogonalEdgeStyle;rounded=0;orthogonalLoop=1;jettySize=auto;html=1;" edge="1" parent="1" target="PweWt-D04_wV0qnd1JjN-2">
          <mxGeometry relative="1" as="geometry">
            <mxPoint x="660" y="580" as="sourcePoint" />
          </mxGeometry>
        </mxCell>
        <mxCell id="PweWt-D04_wV0qnd1JjN-2" value="Cancel Button" style="rounded=1;whiteSpace=wrap;html=1;" vertex="1" parent="1">
          <mxGeometry x="760" y="550" width="120" height="60" as="geometry" />
        </mxCell>
        <mxCell id="PweWt-D04_wV0qnd1JjN-3" value="&lt;span style=&quot;font-size: 8px;&quot;&gt;User Clicks&amp;nbsp;&lt;/span&gt;" style="text;html=1;strokeColor=none;fillColor=none;align=center;verticalAlign=middle;whiteSpace=wrap;rounded=0;" vertex="1" parent="1">
          <mxGeometry x="680" y="550" width="60" height="30" as="geometry" />
        </mxCell>
        <mxCell id="hQkRZ9mXVyALwrQv0n3I-1" style="edgeStyle=orthogonalEdgeStyle;rounded=0;orthogonalLoop=1;jettySize=auto;html=1;" edge="1" parent="1" target="hQkRZ9mXVyALwrQv0n3I-2">
          <mxGeometry relative="1" as="geometry">
            <mxPoint x="880" y="580" as="sourcePoint" />
          </mxGeometry>
        </mxCell>
        <mxCell id="hQkRZ9mXVyALwrQv0n3I-2" value="Cash Advance Microservice" style="shape=cube;whiteSpace=wrap;html=1;boundedLbl=1;backgroundOutline=1;darkOpacity=0.05;darkOpacity2=0.1;" vertex="1" parent="1">
          <mxGeometry x="1000" y="540" width="120" height="80" as="geometry" />
        </mxCell>
        <mxCell id="hQkRZ9mXVyALwrQv0n3I-3" value="&lt;span style=&quot;font-size: 8px;&quot;&gt;Control Passed To&lt;/span&gt;" style="text;html=1;strokeColor=none;fillColor=none;align=center;verticalAlign=middle;whiteSpace=wrap;rounded=0;" vertex="1" parent="1">
          <mxGeometry x="900" y="540" width="60" height="30" as="geometry" />
        </mxCell>
        <mxCell id="Z96xEuvpT63YBNCm_FLv-1" value="" style="edgeStyle=orthogonalEdgeStyle;rounded=0;orthogonalLoop=1;jettySize=auto;html=1;" edge="1" parent="1" target="Z96xEuvpT63YBNCm_FLv-2">
          <mxGeometry relative="1" as="geometry">
            <mxPoint x="1120" y="580" as="sourcePoint" />
          </mxGeometry>
        </mxCell>
        <mxCell id="yPp9qg80hlm2-y0fZkPP-2" value="" style="edgeStyle=orthogonalEdgeStyle;rounded=0;orthogonalLoop=1;jettySize=auto;html=1;" edge="1" parent="1" source="Z96xEuvpT63YBNCm_FLv-2" target="yPp9qg80hlm2-y0fZkPP-1">
          <mxGeometry relative="1" as="geometry" />
        </mxCell>
        <mxCell id="Z96xEuvpT63YBNCm_FLv-2" value="Cash Advance Container" style="shape=cylinder3;whiteSpace=wrap;html=1;boundedLbl=1;backgroundOutline=1;size=15;" vertex="1" parent="1">
          <mxGeometry x="1230" y="525" width="110" height="110" as="geometry" />
        </mxCell>
        <mxCell id="Z96xEuvpT63YBNCm_FLv-3" value="&lt;span style=&quot;font-size: 8px;&quot;&gt;Search&amp;nbsp;&lt;/span&gt;" style="text;html=1;strokeColor=none;fillColor=none;align=center;verticalAlign=middle;whiteSpace=wrap;rounded=0;" vertex="1" parent="1">
          <mxGeometry x="1150" y="540" width="60" height="30" as="geometry" />
        </mxCell>
        <mxCell id="yPp9qg80hlm2-y0fZkPP-3" style="edgeStyle=orthogonalEdgeStyle;rounded=0;orthogonalLoop=1;jettySize=auto;html=1;entryX=0.5;entryY=0;entryDx=0;entryDy=0;" edge="1" parent="1" source="yPp9qg80hlm2-y0fZkPP-1" target="IXdlzOIYDFu96ksL9-iT-1">
          <mxGeometry relative="1" as="geometry">
            <Array as="points">
              <mxPoint x="1495" y="280" />
              <mxPoint x="300" y="280" />
            </Array>
          </mxGeometry>
        </mxCell>
        <mxCell id="yPp9qg80hlm2-y0fZkPP-1" value="Update status to Cancelled for cash advance" style="shape=cylinder3;whiteSpace=wrap;html=1;boundedLbl=1;backgroundOutline=1;size=15;" vertex="1" parent="1">
          <mxGeometry x="1440" y="525" width="110" height="110" as="geometry" />
        </mxCell>
        <mxCell id="df3aN9Boxc5NufsX78CV-1" value="&lt;span style=&quot;font-size: 8px;&quot;&gt;Pop up Message back to Dashboard Container saying cash advancet has been cancelled&amp;nbsp;&lt;/span&gt;" style="text;html=1;strokeColor=none;fillColor=none;align=center;verticalAlign=middle;whiteSpace=wrap;rounded=0;" vertex="1" parent="1">
          <mxGeometry x="580" y="240" width="190" height="30" as="geometry" />
        </mxCell>
        <mxCell id="Mqrh16obmk6D0LN--hAq-3" style="edgeStyle=orthogonalEdgeStyle;rounded=0;orthogonalLoop=1;jettySize=auto;html=1;entryX=0.5;entryY=1;entryDx=0;entryDy=0;" edge="1" parent="1" source="Mqrh16obmk6D0LN--hAq-1" target="II3-7XxeYeSao9Q-zOTx-1">
          <mxGeometry relative="1" as="geometry" />
        </mxCell>
        <mxCell id="Mqrh16obmk6D0LN--hAq-1" value="Cash Advance through Trip view on Overview Dashboard" style="rounded=1;whiteSpace=wrap;html=1;" vertex="1" parent="1">
          <mxGeometry x="240" y="660" width="120" height="60" as="geometry" />
        </mxCell>
        <mxCell id="Mqrh16obmk6D0LN--hAq-2" value="" style="endArrow=classic;html=1;rounded=0;entryX=0;entryY=0.5;entryDx=0;entryDy=0;" edge="1" parent="1" source="JVLMp-UYZ-pjIWobG83I-2" target="Mqrh16obmk6D0LN--hAq-1">
          <mxGeometry width="50" height="50" relative="1" as="geometry">
            <mxPoint x="510" y="630" as="sourcePoint" />
            <mxPoint x="560" y="580" as="targetPoint" />
          </mxGeometry>
        </mxCell>
      </root>
    </mxGraphModel>
  </diagram>
  <diagram id="InyZLqU57rR_T20eRCo0" name="Cancellation workflow for Paid Cash Advance">
    <mxGraphModel dx="954" dy="610" grid="1" gridSize="10" guides="1" tooltips="1" connect="1" arrows="1" fold="1" page="1" pageScale="1" pageWidth="3300" pageHeight="4681" math="0" shadow="0">
      <root>
        <mxCell id="0" />
        <mxCell id="1" parent="0" />
        <mxCell id="wNYsMVzZxFjnwGskSZda-1" value="&lt;font style=&quot;font-size: 24px;&quot;&gt;Cancellation workflow for Paid Cash Advance&lt;/font&gt;" style="text;html=1;strokeColor=none;fillColor=none;align=center;verticalAlign=middle;whiteSpace=wrap;rounded=0;" vertex="1" parent="1">
          <mxGeometry x="40" y="90" width="550" height="30" as="geometry" />
        </mxCell>
        <mxCell id="AAO-CdcHkzxrzkYSvJpR-1" style="edgeStyle=orthogonalEdgeStyle;rounded=0;orthogonalLoop=1;jettySize=auto;html=1;" edge="1" parent="1" source="AAO-CdcHkzxrzkYSvJpR-2">
          <mxGeometry relative="1" as="geometry">
            <mxPoint x="240" y="580" as="targetPoint" />
          </mxGeometry>
        </mxCell>
        <mxCell id="AAO-CdcHkzxrzkYSvJpR-2" value="Actor" style="shape=umlActor;verticalLabelPosition=bottom;verticalAlign=top;html=1;outlineConnect=0;" vertex="1" parent="1">
          <mxGeometry x="80" y="550" width="30" height="60" as="geometry" />
        </mxCell>
        <mxCell id="AAO-CdcHkzxrzkYSvJpR-3" value="&lt;span style=&quot;font-size: 8px;&quot;&gt;Cancels&amp;nbsp;&lt;/span&gt;" style="text;html=1;strokeColor=none;fillColor=none;align=center;verticalAlign=middle;whiteSpace=wrap;rounded=0;" vertex="1" parent="1">
          <mxGeometry x="150" y="540" width="60" height="30" as="geometry" />
        </mxCell>
        <mxCell id="AAO-CdcHkzxrzkYSvJpR-4" style="edgeStyle=orthogonalEdgeStyle;rounded=0;orthogonalLoop=1;jettySize=auto;html=1;" edge="1" parent="1" source="AAO-CdcHkzxrzkYSvJpR-5" target="AAO-CdcHkzxrzkYSvJpR-9">
          <mxGeometry relative="1" as="geometry" />
        </mxCell>
        <mxCell id="AAO-CdcHkzxrzkYSvJpR-5" value="Cash Advance through Trip View" style="rounded=1;whiteSpace=wrap;html=1;" vertex="1" parent="1">
          <mxGeometry x="240" y="550" width="120" height="60" as="geometry" />
        </mxCell>
        <mxCell id="AAO-CdcHkzxrzkYSvJpR-6" style="edgeStyle=orthogonalEdgeStyle;rounded=0;orthogonalLoop=1;jettySize=auto;html=1;" edge="1" parent="1" source="AAO-CdcHkzxrzkYSvJpR-7">
          <mxGeometry relative="1" as="geometry">
            <mxPoint x="240" y="580" as="targetPoint" />
          </mxGeometry>
        </mxCell>
        <mxCell id="AAO-CdcHkzxrzkYSvJpR-7" value="Actor" style="shape=umlActor;verticalLabelPosition=bottom;verticalAlign=top;html=1;outlineConnect=0;" vertex="1" parent="1">
          <mxGeometry x="80" y="550" width="30" height="60" as="geometry" />
        </mxCell>
        <mxCell id="AAO-CdcHkzxrzkYSvJpR-8" value="&lt;span style=&quot;font-size: 8px;&quot;&gt;Cancels&amp;nbsp;&lt;/span&gt;" style="text;html=1;strokeColor=none;fillColor=none;align=center;verticalAlign=middle;whiteSpace=wrap;rounded=0;" vertex="1" parent="1">
          <mxGeometry x="150" y="540" width="60" height="30" as="geometry" />
        </mxCell>
        <mxCell id="AAO-CdcHkzxrzkYSvJpR-9" value="Cash Advances already Paid will only be available here" style="rounded=1;whiteSpace=wrap;html=1;" vertex="1" parent="1">
          <mxGeometry x="490" y="500" width="170" height="160" as="geometry" />
        </mxCell>
        <mxCell id="AAO-CdcHkzxrzkYSvJpR-10" value="" style="edgeStyle=orthogonalEdgeStyle;rounded=0;orthogonalLoop=1;jettySize=auto;html=1;" edge="1" parent="1" target="AAO-CdcHkzxrzkYSvJpR-11">
          <mxGeometry relative="1" as="geometry">
            <mxPoint x="660" y="580" as="sourcePoint" />
          </mxGeometry>
        </mxCell>
        <mxCell id="AAO-CdcHkzxrzkYSvJpR-11" value="Cancel Button" style="rounded=1;whiteSpace=wrap;html=1;" vertex="1" parent="1">
          <mxGeometry x="760" y="550" width="120" height="60" as="geometry" />
        </mxCell>
        <mxCell id="AAO-CdcHkzxrzkYSvJpR-12" value="&lt;span style=&quot;font-size: 8px;&quot;&gt;User Clicks&amp;nbsp;&lt;/span&gt;" style="text;html=1;strokeColor=none;fillColor=none;align=center;verticalAlign=middle;whiteSpace=wrap;rounded=0;" vertex="1" parent="1">
          <mxGeometry x="680" y="550" width="60" height="30" as="geometry" />
        </mxCell>
        <mxCell id="AAO-CdcHkzxrzkYSvJpR-13" style="edgeStyle=orthogonalEdgeStyle;rounded=0;orthogonalLoop=1;jettySize=auto;html=1;" edge="1" parent="1" target="AAO-CdcHkzxrzkYSvJpR-14">
          <mxGeometry relative="1" as="geometry">
            <mxPoint x="880" y="580" as="sourcePoint" />
          </mxGeometry>
        </mxCell>
        <mxCell id="AAO-CdcHkzxrzkYSvJpR-14" value="Cash Advance Microservice" style="shape=cube;whiteSpace=wrap;html=1;boundedLbl=1;backgroundOutline=1;darkOpacity=0.05;darkOpacity2=0.1;" vertex="1" parent="1">
          <mxGeometry x="1000" y="540" width="120" height="80" as="geometry" />
        </mxCell>
        <mxCell id="AAO-CdcHkzxrzkYSvJpR-15" value="&lt;span style=&quot;font-size: 8px;&quot;&gt;Control Passed To&lt;/span&gt;" style="text;html=1;strokeColor=none;fillColor=none;align=center;verticalAlign=middle;whiteSpace=wrap;rounded=0;" vertex="1" parent="1">
          <mxGeometry x="900" y="540" width="60" height="30" as="geometry" />
        </mxCell>
        <mxCell id="AAO-CdcHkzxrzkYSvJpR-16" value="" style="edgeStyle=orthogonalEdgeStyle;rounded=0;orthogonalLoop=1;jettySize=auto;html=1;" edge="1" parent="1" target="AAO-CdcHkzxrzkYSvJpR-18">
          <mxGeometry relative="1" as="geometry">
            <mxPoint x="1120" y="580" as="sourcePoint" />
          </mxGeometry>
        </mxCell>
        <mxCell id="AAO-CdcHkzxrzkYSvJpR-17" value="" style="edgeStyle=orthogonalEdgeStyle;rounded=0;orthogonalLoop=1;jettySize=auto;html=1;" edge="1" parent="1" source="AAO-CdcHkzxrzkYSvJpR-18" target="AAO-CdcHkzxrzkYSvJpR-21">
          <mxGeometry relative="1" as="geometry" />
        </mxCell>
        <mxCell id="AAO-CdcHkzxrzkYSvJpR-18" value="Cash Advance Container" style="shape=cylinder3;whiteSpace=wrap;html=1;boundedLbl=1;backgroundOutline=1;size=15;" vertex="1" parent="1">
          <mxGeometry x="1230" y="525" width="110" height="110" as="geometry" />
        </mxCell>
        <mxCell id="AAO-CdcHkzxrzkYSvJpR-19" value="&lt;span style=&quot;font-size: 8px;&quot;&gt;Search&amp;nbsp;&lt;/span&gt;" style="text;html=1;strokeColor=none;fillColor=none;align=center;verticalAlign=middle;whiteSpace=wrap;rounded=0;" vertex="1" parent="1">
          <mxGeometry x="1150" y="540" width="60" height="30" as="geometry" />
        </mxCell>
        <mxCell id="AAO-CdcHkzxrzkYSvJpR-20" style="edgeStyle=orthogonalEdgeStyle;rounded=0;orthogonalLoop=1;jettySize=auto;html=1;entryX=0.5;entryY=0;entryDx=0;entryDy=0;" edge="1" parent="1" source="AAO-CdcHkzxrzkYSvJpR-21" target="AAO-CdcHkzxrzkYSvJpR-5">
          <mxGeometry relative="1" as="geometry">
            <Array as="points">
              <mxPoint x="1495" y="280" />
              <mxPoint x="300" y="280" />
            </Array>
          </mxGeometry>
        </mxCell>
        <mxCell id="AAO-CdcHkzxrzkYSvJpR-21" value="Update status to Paid and Cancelled for cash advance" style="shape=cylinder3;whiteSpace=wrap;html=1;boundedLbl=1;backgroundOutline=1;size=15;" vertex="1" parent="1">
          <mxGeometry x="1440" y="525" width="110" height="110" as="geometry" />
        </mxCell>
        <mxCell id="AAO-CdcHkzxrzkYSvJpR-22" value="&lt;span style=&quot;font-size: 8px;&quot;&gt;Pop up Message back to Dashboard Container saying cash advancet has been cancelled&amp;nbsp;&lt;/span&gt;" style="text;html=1;strokeColor=none;fillColor=none;align=center;verticalAlign=middle;whiteSpace=wrap;rounded=0;" vertex="1" parent="1">
          <mxGeometry x="580" y="240" width="190" height="30" as="geometry" />
        </mxCell>
      </root>
    </mxGraphModel>
  </diagram>
</mxfile>
